<svg xmlns="http://www.w3.org/2000/svg" version="1.1" xmlns:xlink="http://www.w3.org/1999/xlink" width="1000" height="1000"><style>
    #light-icon {
      display: inline;
    }
    #dark-icon {
      display: none;
    }

    @media (prefers-color-scheme: dark) {
      #light-icon {
        display: none;
      }
      #dark-icon {
        display: inline;
      }
    }
  </style><g id="light-icon"><svg xmlns="http://www.w3.org/2000/svg" version="1.1" xmlns:xlink="http://www.w3.org/1999/xlink" width="1000" height="1000"><g clip-path="url(#SvgjsClipPath1130)"><rect width="1000" height="1000" fill="#d0970f"></rect><g transform="matrix(1.550387596899225,0,0,1.550387596899225,-5.684341886080802e-14,-5.684341886080802e-14)"><svg xmlns="http://www.w3.org/2000/svg" version="1.1" xmlns:xlink="http://www.w3.org/1999/xlink" width="645" height="645"><svg width="645" height="645" viewBox="0 0 645 645" fill="none" xmlns="http://www.w3.org/2000/svg">
<circle cx="322.83" cy="322.541" r="321.859" fill="#D0970F"></circle>
<rect x="250.973" y="155.304" width="73" height="350" rx="3" transform="rotate(10 250.973 155.304)" fill="white"></rect>
<rect x="310.061" y="165.723" width="177" height="63" rx="3" transform="rotate(10 310.061 165.723)" fill="white"></rect>
<rect x="278.91" y="322.682" width="153" height="63" rx="3" transform="rotate(10 278.91 322.682)" fill="white"></rect>
<rect x="212.569" y="242.682" width="139" height="38" rx="3" transform="rotate(10 212.569 242.682)" fill="white"></rect>
</svg></svg></g></g><defs><clipPath id="SvgjsClipPath1130"><rect width="1000" height="1000" x="0" y="0" rx="500" ry="500"></rect></clipPath></defs></svg></g><g id="dark-icon"><svg xmlns="http://www.w3.org/2000/svg" version="1.1" xmlns:xlink="http://www.w3.org/1999/xlink" width="1000" height="1000"><g clip-path="url(#SvgjsClipPath1131)"><rect width="1000" height="1000" fill="#d0970f"></rect><g transform="matrix(1.550387596899225,0,0,1.550387596899225,-5.684341886080802e-14,-5.684341886080802e-14)"><svg xmlns="http://www.w3.org/2000/svg" version="1.1" xmlns:xlink="http://www.w3.org/1999/xlink" width="645" height="645"><svg width="645" height="645" viewBox="0 0 645 645" fill="none" xmlns="http://www.w3.org/2000/svg">
<circle cx="322.83" cy="322.541" r="321.859" fill="#D0970F"></circle>
<rect x="250.973" y="155.304" width="73" height="350" rx="3" transform="rotate(10 250.973 155.304)" fill="white"></rect>
<rect x="310.061" y="165.723" width="177" height="63" rx="3" transform="rotate(10 310.061 165.723)" fill="white"></rect>
<rect x="278.91" y="322.682" width="153" height="63" rx="3" transform="rotate(10 278.91 322.682)" fill="white"></rect>
<rect x="212.569" y="242.682" width="139" height="38" rx="3" transform="rotate(10 212.569 242.682)" fill="white"></rect>
</svg></svg></g></g><defs><clipPath id="SvgjsClipPath1131"><rect width="1000" height="1000" x="0" y="0" rx="500" ry="500"></rect></clipPath></defs></svg></g></svg>